<svg width="196" height="404" viewBox="0 0 196 404" fill="none" xmlns="http://www.w3.org/2000/svg">
<path d="M195.333 6C195.333 3.05448 192.946 0.666667 190 0.666667C187.054 0.666667 184.667 3.05448 184.667 6C184.667 8.94552 187.054 11.3333 190 11.3333C192.946 11.3333 195.333 8.94552 195.333 6ZM6 5C5.44772 5 5 5.44772 5 6C5 6.55228 5.44772 7 6 7V5ZM190 5L6 5V7L190 7V5Z" fill="#00A7C1"/>
<path d="M7 6C7 5.44772 6.55228 5 6 5C5.44772 5 5 5.44772 5 6H7ZM6 392.667C3.05448 392.667 0.666667 395.054 0.666667 398C0.666667 400.946 3.05448 403.333 6 403.333C8.94552 403.333 11.3333 400.946 11.3333 398C11.3333 395.054 8.94552 392.667 6 392.667ZM5 6L5 398H7L7 6H5Z" fill="#00A7C1"/>
</svg>
