<svg width="599" height="130" viewBox="0 0 599 130" fill="none" xmlns="http://www.w3.org/2000/svg">
<path d="M0.666667 6C0.666667 8.94552 3.05448 11.3333 6 11.3333C8.94552 11.3333 11.3333 8.94552 11.3333 6C11.3333 3.05448 8.94552 0.666667 6 0.666667C3.05448 0.666667 0.666667 3.05448 0.666667 6ZM592 7C592.552 7 593 6.55228 593 6C593 5.44772 592.552 5 592 5V7ZM6 7H592V5H6V7Z" fill="#00A7C1"/>
<path d="M592.906 5.9858C592.901 5.43354 592.449 4.9922 591.897 5.00004C591.345 5.00789 590.901 5.46194 590.906 6.0142L592.906 5.9858ZM592.954 118.667C590.009 118.709 587.644 121.13 587.671 124.076C587.698 127.021 590.108 129.375 593.053 129.333C595.999 129.291 598.364 126.87 598.337 123.924C598.309 120.979 595.899 118.625 592.954 118.667ZM590.906 6.0142L592.004 124.014L594.004 123.986L592.906 5.9858L590.906 6.0142Z" fill="#00A7C1"/>
</svg>
