<svg width="40" height="40" viewBox="0 0 40 40" fill="none" xmlns="http://www.w3.org/2000/svg">
<path d="M21.667 33.3337L33.3337 21.667M21.667 33.3337V23.3337C21.667 22.8916 21.8426 22.4677 22.1551 22.1551C22.4677 21.8426 22.8916 21.667 23.3337 21.667H33.3337M21.667 33.3337H10.0003C9.11627 33.3337 8.26842 32.9825 7.6433 32.3573C7.01818 31.7322 6.66699 30.8844 6.66699 30.0003V10.0003C6.66699 9.11627 7.01818 8.26842 7.6433 7.6433C8.26842 7.01818 9.11627 6.66699 10.0003 6.66699H30.0003C30.8844 6.66699 31.7322 7.01818 32.3573 7.6433C32.9825 8.26842 33.3337 9.11627 33.3337 10.0003V21.667" stroke="#00A7C1" stroke-width="3.33333" stroke-linecap="round" stroke-linejoin="round"/>
</svg>
